<svg xmlns="http://www.w3.org/2000/svg" viewBox="0 0 78.36 94.87"><defs><style>.cls-1{fill:#ff30d6;}.cls-2{fill:#45e9ff;}.cls-3{fill:#452cd6;}</style></defs><g id="Layer_2" data-name="Layer 2"><g id="Layer_1-2" data-name="Layer 1"><path class="cls-1" d="M74.22,51.25A12,12,0,0,0,57.45,51l-.53.48v3.14l2.09-2h0a9.75,9.75,0,0,1,13.59.19,2.24,2.24,0,0,1,.34.42,11,11,0,0,1,2.68,1.29A4.78,4.78,0,0,0,74.22,51.25Z"/><path class="cls-1" d="M46.46,6.76A7.61,7.61,0,0,0,42.35,8a7.47,7.47,0,0,1,1,2.05,5.37,5.37,0,0,1,7.46,1.33,5.19,5.19,0,0,1,.31.5A6.27,6.27,0,0,1,54,12.91,7.74,7.74,0,0,0,46.46,6.76Z"/><path class="cls-1" d="M32.86,0A8.16,8.16,0,0,0,26,3.81a7.47,7.47,0,0,0-1.13-1.5A7.76,7.76,0,0,0,11.54,7.73v6a6.84,6.84,0,0,0-4.63-1.78A7,7,0,0,0,0,19.05V66.4a25.79,25.79,0,0,0,14.11,23,24.64,24.64,0,0,1-6.45-8,23.53,23.53,0,0,1-5.38-15V19.05A4.63,4.63,0,0,1,11.13,17a5.79,5.79,0,0,1,2.68.85V7.73a5.45,5.45,0,0,1,5.44-5.44A5.39,5.39,0,0,1,23.17,3.9,5.09,5.09,0,0,1,24,5.09a6.51,6.51,0,0,1,3.21,1.32A5.82,5.82,0,0,1,37.8,5.1a6.72,6.72,0,0,1,2.92,1.2,8.76,8.76,0,0,0-1.93-3.65A7.85,7.85,0,0,0,32.86,0Z"/><path class="cls-2" d="M54.19,54.08l2.74-2.58V18.73a7.11,7.11,0,0,0-3-5.82,8.4,8.4,0,0,1,.22,1.93Z"/><path class="cls-2" d="M53.05,77.61l19.64-21.3a2.47,2.47,0,0,0,.26-3,10.92,10.92,0,0,0-10.84,2.44l-5.18,4.87v-6l-3.11,2.92a1.13,1.13,0,0,1-.78.31H39.71A14.68,14.68,0,0,0,28.6,63l-1.73-1.5a17,17,0,0,1,12.84-5.88H51.89V14.84a6,6,0,0,0-.74-3,6.57,6.57,0,0,0-7.33,5.71,7.52,7.52,0,0,0,0,.82v-6A7.66,7.66,0,0,0,43.38,10,5.45,5.45,0,0,0,41,14.49V41.4H38.75V8.54a6.66,6.66,0,0,0-.92-3.43A7.82,7.82,0,0,0,36.76,5a7,7,0,0,0-7,7v-.42a6.62,6.62,0,0,0-2.48-5.22A6,6,0,0,0,27,8.16V41.4H24.71V7.74a5.59,5.59,0,0,0-.65-2.65,6.8,6.8,0,0,0-.9-.06,6.59,6.59,0,0,0-6.58,6.58v11.1a5.78,5.78,0,0,0-2.74-4.91V41.4H11.55V18.82A4.64,4.64,0,0,0,11.13,17h-.34A5.81,5.81,0,0,0,5,23V70.28A24.66,24.66,0,0,0,7.66,81.4,23.1,23.1,0,0,0,25.5,89.86C37.22,89.86,45.2,86.31,53.05,77.61Z"/><path class="cls-2" d="M77.31,56h0a11.49,11.49,0,0,0-1.68-1.36,4.74,4.74,0,0,1-1.26,3.26L54.74,79.15a38.93,38.93,0,0,1-12.33,9.58,38.81,38.81,0,0,1-16.91,3.4,25.16,25.16,0,0,1-11.38-2.72,24,24,0,0,0,15.27,5.46c13.19,0,21.14-4.58,28.39-12.62L77.41,61A3.62,3.62,0,0,0,77.31,56Z"/><path class="cls-2" d="M41,9a7.88,7.88,0,0,1,1.33-1,7,7,0,0,0-1.61-1.64A8.72,8.72,0,0,1,41,8.54Z"/><path class="cls-3" d="M24.7,41.4H27V8.16a5.5,5.5,0,0,1,.26-1.75A6.51,6.51,0,0,0,24,5.09a5.59,5.59,0,0,1,.65,2.65Z"/><path class="cls-3" d="M11.54,41.4h2.28V17.8A5.61,5.61,0,0,0,11.13,17a4.65,4.65,0,0,1,.4,1.87Z"/><path class="cls-3" d="M38.74,41.4H41V14.48A5.4,5.4,0,0,1,43.38,10,7.85,7.85,0,0,0,42.33,8,7.43,7.43,0,0,0,41,9V8.54a9.34,9.34,0,0,0-.29-2.23,6.65,6.65,0,0,0-2.92-1.2,6.47,6.47,0,0,1,.92,3.43Z"/><path class="cls-3" d="M73,53.3a2.47,2.47,0,0,1-.26,3L53.05,77.61c-7.84,8.7-15.82,12.25-27.54,12.25A23.1,23.1,0,0,1,7.67,81.4a24.77,24.77,0,0,0,6.45,8A25.16,25.16,0,0,0,25.5,92.15a39,39,0,0,0,16.91-3.4,38.8,38.8,0,0,0,12.32-9.59L74.37,57.85a4.77,4.77,0,0,0,1.26-3.27A10.65,10.65,0,0,0,73,53.3Z"/><path class="cls-3" d="M28.59,63a14.7,14.7,0,0,1,11.12-5.09H53a1.15,1.15,0,0,0,.79-.31l3.1-2.92V51.5l-2.74,2.58V14.84A8.4,8.4,0,0,0,54,12.91a6.28,6.28,0,0,0-2.82-1.07,5.94,5.94,0,0,1,.75,3V55.58H39.71a17,17,0,0,0-12.85,5.88Z"/></g></g></svg>