<svg xmlns="http://www.w3.org/2000/svg" viewBox="0 0 70.86 75.93"><defs><style>.cls-1{fill:#ff30d6;}.cls-2{fill:#45e9ff;}.cls-3{fill:#452cd6;}</style></defs><g id="Layer_2" data-name="Layer 2"><g id="Layer_1-2" data-name="Layer 1"><path class="cls-1" d="M2.28,43.24V34.73a8.4,8.4,0,0,0,1.6,1.37v-3a6.4,6.4,0,0,1-1.6-4.23V19a6.41,6.41,0,0,1,10.66-4.81,8.62,8.62,0,0,1,4.45,1.45V9.19A6.9,6.9,0,0,1,28.73,3.91a9.15,9.15,0,0,1,5.49,2.25A7,7,0,0,1,43.58,3a6.4,6.4,0,0,1,1.35.88A9.21,9.21,0,0,1,50.36,6.1a5.75,5.75,0,0,1,7.71-2.59,5.88,5.88,0,0,1,1.42,1,8,8,0,0,1,3.3.75,8,8,0,0,0-14.26-.59,9.28,9.28,0,0,0-16.17.12,9.18,9.18,0,0,0-17.24,4.4v3.89A8.7,8.7,0,0,0,0,19V43.24A28.76,28.76,0,0,0,10.49,65.45,28.7,28.7,0,0,1,4.91,54.74,26.35,26.35,0,0,1,2.28,43.24Z"/><path class="cls-2" d="M69.92,36.35a15.09,15.09,0,0,0-2.49-4.29V12.55a8.07,8.07,0,0,0-4.65-7.29,8,8,0,0,1,.76,3.4V28.17A14.92,14.92,0,0,1,67,37.69h0A34.4,34.4,0,0,1,32.63,72H28.8a28.67,28.67,0,0,1-18.33-6.6A28.76,28.76,0,0,0,32.68,75.93h3.83A34.4,34.4,0,0,0,70.86,41.58h0A15,15,0,0,0,69.92,36.35Z"/><path class="cls-2" d="M3.87,22.84V33.08a6.41,6.41,0,0,0,11.24-4.23V19a6.42,6.42,0,0,0-2.17-4.81h-.36A8.71,8.71,0,0,0,3.87,22.84Z"/><path class="cls-2" d="M4.89,54.74a26.57,26.57,0,0,0,23.91,15h3.83A32.1,32.1,0,0,0,64.69,37.71h0A12.65,12.65,0,0,0,52,25.06H19a1.56,1.56,0,0,0-1.57,1.56v1.7A10.86,10.86,0,0,0,28.22,39.16H44.64v2.28h-.19A12.19,12.19,0,0,0,32.28,53.62v3.92H30V53.6a14.44,14.44,0,0,1,6.66-12.17H28.23a13.15,13.15,0,0,1-12.1-8.06A8.7,8.7,0,0,1,4.19,36.29l-.31-.2v11A28.36,28.36,0,0,0,4.89,54.74Z"/><path class="cls-2" d="M52.41,8.56A9.38,9.38,0,0,0,50.35,6.1a5.68,5.68,0,0,0-.61,2.56V22.77H52A14.91,14.91,0,0,1,61.25,26V8.66a5.74,5.74,0,0,0-1.77-4.15h-.09A8,8,0,0,0,52.41,8.56Z"/><path class="cls-2" d="M36.25,8.67a9.62,9.62,0,0,0-2-2.51,6.91,6.91,0,0,0-.73,3.12V22.76h14V9.28A7,7,0,0,0,45,3.91l-.59,0A9.27,9.27,0,0,0,36.25,8.67Z"/><path class="cls-2" d="M19,13.08V17a8.72,8.72,0,0,0-1.6-1.37V19h0v4.13A3.85,3.85,0,0,1,19,22.76H31.21V9.19a6.87,6.87,0,0,0-2.47-5.28l-.55,0A9.2,9.2,0,0,0,19,13.08Z"/><path class="cls-3" d="M32.63,72.06A34.4,34.4,0,0,0,67,37.71h0a14.94,14.94,0,0,0-3.44-9.52V8.66a8,8,0,0,0-.76-3.4,8,8,0,0,0-3.3-.75,5.74,5.74,0,0,1,1.77,4.15V26A14.91,14.91,0,0,0,52,22.76H49.74V8.65a5.68,5.68,0,0,1,.61-2.56A9.18,9.18,0,0,0,44.94,3.9a7,7,0,0,1,2.52,5.37V22.75h-14V9.28a7,7,0,0,1,.73-3.12,9.09,9.09,0,0,0-5.48-2.25,6.89,6.89,0,0,1,2.46,5.28V22.76H19a3.85,3.85,0,0,0-1.57.33V19h0V15.6a8.65,8.65,0,0,0-4.46-1.45A6.38,6.38,0,0,1,15.09,19v9.89A6.41,6.41,0,0,1,3.86,33.08v3A8.68,8.68,0,0,0,15.91,33.7c.08-.11.15-.22.22-.33a13.16,13.16,0,0,0,12.11,8.06h8.43A14.42,14.42,0,0,0,30,53.6v3.94h2.29V53.6A12.17,12.17,0,0,1,44.46,41.43h.19V39.14H28.23A10.85,10.85,0,0,1,17.39,28.3V26.61A1.56,1.56,0,0,1,19,25H52A12.66,12.66,0,0,1,64.69,37.67h0A32.09,32.09,0,0,1,32.63,69.73H28.8a26.57,26.57,0,0,1-23.91-15,28.78,28.78,0,0,0,5.58,10.71,28.67,28.67,0,0,0,18.33,6.6Z"/></g></g></svg>