<svg xmlns="http://www.w3.org/2000/svg" viewBox="0 0 65.12 99.69"><defs><style>.cls-1{fill:#45e9ff;}.cls-2{fill:#ff30d6;}.cls-3{fill:#452cd6;}</style></defs><g id="Layer_2" data-name="Layer 2"><g id="Layer_1-2" data-name="Layer 1"><path class="cls-1" d="M63.55,7a7.79,7.79,0,0,0-3-2.41,7.82,7.82,0,0,1,.62,4.3c-1.46,10.91-2.57,18.7-3.38,24.39-2.45,17.2-2.45,17.2-2.45,34.13h0a28.31,28.31,0,0,1-8.75,20.95,27.79,27.79,0,0,1-19,7.46c-.59,0-1.19,0-1.79-.06a26.71,26.71,0,0,1-15.29-6.09c.24.29.49.58.74.86a26.92,26.92,0,0,0,18.44,9.11c.6,0,1.19.06,1.79.06a27.78,27.78,0,0,0,19-7.45,28.32,28.32,0,0,0,8.75-21h0c0-16.92,0-16.92,2.45-34.12.8-5.69,1.91-13.48,3.37-24.4A7.71,7.71,0,0,0,63.55,7Z"/><path class="cls-1" d="M29.29,37.27a8.19,8.19,0,0,1,1.29,4.41V52.46h9.81a15,15,0,0,1,12.67,7c.07-9.77.44-12.37,2.45-26.54.81-5.68,1.92-13.47,3.38-24.38a5.5,5.5,0,0,0-1.58-4.68,7.8,7.8,0,0,0-7.7,6.7l-4.18,28.6-1.07-7.36L42.67,43.4a1.14,1.14,0,0,1-2.26,0L35.13,7.15A5.38,5.38,0,0,0,33.55,4a7.78,7.78,0,0,0-7.78,7.79,7.88,7.88,0,0,0,.08,1.09Z"/><path class="cls-1" d="M8.21,62.63a6,6,0,0,0,5.89-5.18v-.19a3.21,3.21,0,0,1,.05-.69v-8.5a6,6,0,0,0-1.88-4.33H12.1A8.23,8.23,0,0,0,3.89,52v8.78A5.91,5.91,0,0,0,8.21,62.63Z"/><path class="cls-1" d="M45,86.69a26,26,0,0,0,8-19.28A12.66,12.66,0,0,0,40.39,54.75H18.9a2.52,2.52,0,0,0-2.46,2c0,.26,0,.52,0,.79a9,9,0,0,0,9,8.7H36.23v2.28A10.68,10.68,0,0,0,25.57,79.21v3.48H23.29V79.2a12.94,12.94,0,0,1,5.6-10.66h-3.5a11.29,11.29,0,0,1-10.48-7.08,8.18,8.18,0,0,1-11,2.22v7.45a29.42,29.42,0,0,0,1,7.75A27.17,27.17,0,0,0,9.1,85.12,24.74,24.74,0,0,0,26,93.47,25.49,25.49,0,0,0,45,86.69Z"/><path class="cls-1" d="M41.55,35.3l1.67-11.4L41.3,10.7a7.84,7.84,0,0,0-4.51-6,7.55,7.55,0,0,1,.62,2.13Z"/><path class="cls-1" d="M28.29,52.46V41.68a5.89,5.89,0,0,0-1.88-4.32h-.17A8.21,8.21,0,0,0,18,45.57v.7a8.28,8.28,0,0,0-1.6-1.3v8.17a4.75,4.75,0,0,1,2.46-.68Z"/><path class="cls-2" d="M60.54,4.58a7.53,7.53,0,0,0-.88-1.47,7.79,7.79,0,0,0-13.94,3.6L43.22,23.9,41.55,35.3,37.41,6.82A7.8,7.8,0,0,0,22,9l3.53,25.1a8.1,8.1,0,0,0-3.11-.62h0a8.22,8.22,0,0,0-8.22,8.21v.71A8.21,8.21,0,0,0,0,48.08V67.25A29,29,0,0,0,10.53,89.68a26.76,26.76,0,0,0,15.29,6.08c.6,0,1.2.06,1.79.06a27.78,27.78,0,0,0,19-7.45,28.33,28.33,0,0,0,8.75-21h0c0-16.93,0-16.93,2.45-34.13.81-5.68,1.92-13.48,3.38-24.39A7.79,7.79,0,0,0,60.54,4.58ZM16.44,41.69a5.92,5.92,0,0,1,5.93-5.93h0a5.86,5.86,0,0,1,3,.84,5.73,5.73,0,0,1,1,.76,5.92,5.92,0,0,1,1.88,4.33V52.46H18.9a4.75,4.75,0,0,0-2.46.68V41.68ZM2.3,48.07a5.93,5.93,0,0,1,11.85,0v8.51a5.06,5.06,0,0,0-.05.68v.2A5.93,5.93,0,0,1,2.29,56.7ZM45,86.69a25.57,25.57,0,0,1-19,6.78A24.74,24.74,0,0,1,9.1,85.12,26.86,26.86,0,0,1,2.31,67.24V62.39a8.1,8.1,0,0,0,1.6,1.31,8.19,8.19,0,0,0,11-2.22A11.32,11.32,0,0,0,25.4,68.56h3.5a12.93,12.93,0,0,0-5.6,10.66v3.47h2.28V79.2A10.68,10.68,0,0,1,36.24,68.54V66.26H25.4a9,9,0,0,1-9-8.71c0-.26,0-.52,0-.78a2.52,2.52,0,0,1,2.46-2H40.4A12.68,12.68,0,0,1,53.06,67.41,26.17,26.17,0,0,1,45,86.69ZM58.89,8.56c-1.46,10.91-2.57,18.69-3.38,24.38-2,14.16-2.38,16.77-2.45,26.54a15,15,0,0,0-12.67-7H30.58V41.68a8.19,8.19,0,0,0-1.29-4.41A7.91,7.91,0,0,0,28,35.75L24.24,8.67A5.51,5.51,0,1,1,35.15,7.14L40.42,43.4a1.15,1.15,0,0,0,2.27,0l1.68-11.57L48,7a5.5,5.5,0,0,1,10.9,1.54Z"/><path class="cls-3" d="M40.42,43.4a1.15,1.15,0,0,0,2.27,0l1.68-11.57L43.23,23.9,41.57,35.3,37.42,6.82a7.88,7.88,0,0,0-.61-2.13A7.69,7.69,0,0,0,33.58,4a5.5,5.5,0,0,1,1.58,3.13Z"/><path class="cls-3" d="M60.54,4.58a7.85,7.85,0,0,0-3.23-.69,5.5,5.5,0,0,1,1.58,4.68C57.43,19.48,56.32,27.26,55.51,33c-2,14.16-2.38,16.77-2.45,26.54a15,15,0,0,0-12.67-7H30.58V41.68a8.19,8.19,0,0,0-1.29-4.41l.1.71a8.19,8.19,0,0,0-3-.62,5.89,5.89,0,0,1,1.88,4.32V52.46H18.9a4.75,4.75,0,0,0-2.46.68V45a8.18,8.18,0,0,0-4.17-1.23,5.92,5.92,0,0,1,1.88,4.33v8.5a5.34,5.34,0,0,0-.05.69v.19a5.92,5.92,0,0,1-6.62,5.13A5.85,5.85,0,0,1,3.9,60.74v2.94a8.19,8.19,0,0,0,11-2.22,11.3,11.3,0,0,0,10.47,7.08h3.51A13,13,0,0,0,23.28,79.2v3.49h2.29V79.2A10.68,10.68,0,0,1,36.23,68.54V66.26H25.38a9,9,0,0,1-9-8.71c0-.26,0-.52.05-.78a2.51,2.51,0,0,1,2.46-2H40.39A12.67,12.67,0,0,1,53,67.41a26,26,0,0,1-8,19.28,25.53,25.53,0,0,1-19,6.78A24.74,24.74,0,0,1,9.1,85.12,26.81,26.81,0,0,1,5,78.88a28.93,28.93,0,0,0,5.6,10.79,26.76,26.76,0,0,0,15.29,6.08c.59,0,1.19.06,1.79.06a27.8,27.8,0,0,0,19-7.45,28.31,28.31,0,0,0,8.75-21h0c0-16.93,0-16.93,2.45-34.13.81-5.69,1.92-13.48,3.38-24.39A7.75,7.75,0,0,0,60.54,4.58Z"/></g></g></svg>